<svg xmlns="http://www.w3.org/2000/svg" viewBox="0 0 1562.46 376.69"><defs><style>.cls-1{fill:#ed1c24;}.cls-2{fill:#005baa;}.cls-3{isolation:isolate;}</style></defs><title>Fichier 3</title><g id="Calque_2" data-name="Calque 2"><g id="Calque_1-2" data-name="Calque 1"><path class="cls-1" d="M1261.28,9.6a3.07,3.07,0,0,1,2.08-1,2,2,0,0,1,1.85,2.14v0a3.27,3.27,0,0,1-1,2.19c-27.42,34.1-47.37,74-47.37,129.27s20,94.35,47.37,128.44a3.36,3.36,0,0,1,1,2.19,2,2,0,0,1-1.81,2.18h0a3,3,0,0,1-2.08-1.05L1144.39,161c-5.83-5-9.56-10.82-9.56-19.12s3.73-14.16,9.56-19.11L1261.28,9.6"></path><path class="cls-2" d="M1351.16.05c-45.76,0-63.63,64.86-63.63,142.15s17.87,141.31,63.63,141.31c27.47,0,50.87-16.09,51-29.31a11.21,11.21,0,0,0-3.53-8.07c-13-12.57-18.09-25.14-18.16-36.23-.07-21.18,18.3-37,35.22-37,23.29,0,37,18.3,37,42,0,22.45-9.58,41.17-20,56.14a3.35,3.35,0,0,0-.59,1.89,1.93,1.93,0,0,0,1.69,2.13h0a3.21,3.21,0,0,0,2.17-1.14l116.91-113c5.82-5,9.55-10.82,9.55-19.12s-3.73-14.16-9.55-19.11L1436,9.61a3.29,3.29,0,0,0-2.17-1.14,1.94,1.94,0,0,0-1.74,2.11v.05a3.42,3.42,0,0,0,.59,1.91c10.39,15,20,33.67,20,56.09,0,23.68-13.73,42-37,42-16.92,0-35.29-15.78-35.22-37,.07-11.07,5.15-23.66,18.16-36.22a11.21,11.21,0,0,0,3.53-8.08C1402,16.1,1378.63,0,1351.12,0"></path><path class="cls-2" d="M156,190a33.31,33.31,0,0,1,13.94-27.78c8.74-6.44,21-9.86,35.12-9.86,8.86,0,18,1.63,24.28,4.35V143.51c-.21-13.33-5.26-20.91-20.22-21.08a51.94,51.94,0,0,0-14.2,2.48,24.11,24.11,0,0,1,.79,5.79,17.28,17.28,0,0,1-4.11,11.58,15,15,0,0,1-11.42,4.9c-8.63,0-15.15-7-15.18-15.81.19-16.2,19.84-27.09,46.09-27.1,20.84,0,33.91,4.94,40.9,13.92,6.34,8.06,6.64,19.83,6.67,36.44v43.25c.12,8.38,4.86,10.67,15.29,12.28l1.2.15-.08,1.22c-.6,11.41-9,16.15-18,16.87-.79.07-1.56.1-2.34.1-8.87,0-17.43-4.34-21.51-13.21C227.62,220,215,228.78,198.73,228.8c-24.23,0-42.62-16.38-42.66-38.76m743.24,33.14c-2.16-3-3.34-6.85-4.36-11.26-1.21,1.36-2.62,2.82-4.76,4.87a43.28,43.28,0,0,1-29.91,11.89c-12.71,0-23.54-4.87-30.44-13C819.24,203,819.33,187,819.31,164.23v-22c-.22-8.88-3-11.91-11.26-12.14a33.87,33.87,0,0,0-3.49.21l-1,.11-.37-.92a12.81,12.81,0,0,1-1-4.73c.26-10.61,13.7-16.29,21.59-17.92a53.51,53.51,0,0,1,7.88-.87c6.43,0,11.19,2.06,14.16,5.77S850,120.56,850,126.5L849.8,164c0,13.84,1,24.19,4,30.85s7.78,9.72,16.41,9.8c9.39,0,15-4.07,18.68-10.09s4.94-14.17,4.94-22v-30.3c-.23-8.88-3-11.93-11.27-12.14a31.25,31.25,0,0,0-3.48.21l-1,.11-.37-.92a12.81,12.81,0,0,1-1-4.73c.27-10.61,13.68-16.29,21.62-17.92a52.19,52.19,0,0,1,7.88-.87c6.43,0,11.19,2.06,14.19,5.77s4.2,8.82,4.2,14.75c0,4.3-.4,11.94-.4,43.85,0,13.49-.23,20.66-.23,22.83.2,9.2,3.31,13.33,11.81,13.5.9,0,1.84-.07,2.89-.17l1-.1.37.92a12.2,12.2,0,0,1,1,4.61c-.33,10.37-13.8,14.51-21.6,16.07a50.82,50.82,0,0,1-7.38.83h-.17c-6,0-10.1-2.12-12.65-5.69M473.57,168.46c0-18.62,6.13-34.69,16.85-46.1s26-18.14,44.16-18.12c16.52,0,28.76,6.11,36.78,14.89a45.79,45.79,0,0,1,11.85,30.58,34.37,34.37,0,0,1-4,16.8l-.36.67H505c1.22,21.48,14.9,36.49,38.71,36.57,14.64,0,25.92-8,29.67-12.84l.79-1,1,.76c2.13,1.52,4.43,4.32,4.38,9.67-.08,12.38-14.58,28.24-46.74,28.26-32.67,0-59.24-26.08-59.29-60.13M735.16,228.4c-16.64,0-31.81-6.25-42.8-17.18s-17.8-26.54-17.8-45.11c.06-36.79,29-61.81,61.65-61.87,17.57,0,32.82,6.25,43.62,17.15S797,147.79,797,166.11s-6.63,34-17.7,45S752.73,228.4,735.16,228.4Zm226.16-3.7c-5.13-1.4-8.43-4.2-8.41-8.44a13,13,0,0,1,1.38-5.37l.27-.59.65-.13a19.16,19.16,0,0,0,8-3.63c3.07-2.51,4.25-6,4.25-15.85V141.18c-.23-8.35-2.13-11.27-9.08-11.47a30.18,30.18,0,0,0-5.52.6l-1.06.19-.4-1a14.68,14.68,0,0,1-1.08-5.31c.18-9.92,11-15,18.31-17.3a28.39,28.39,0,0,1,8.23-1.33c9.89,0,15.28,7.09,17.56,16.24,6.48-10.64,16.82-17.69,27-17.74,9.57,0,19.18,6.26,19.22,18.15,0,8.44-6,17.28-15.9,17.33a15.31,15.31,0,0,1-15.3-12c-5.62,1.84-13.54,8.89-13.64,33.33v29.89c0,9.81,1.41,13.34,4.17,15.83,2.89,2.17,8.75,3.26,10.8,3.65l.65.13.28.6a14,14,0,0,1,1.52,5.81c0,4-3,6.75-7.78,8.07s-12,2-21.63,2c-9.88,0-17.38-.58-22.56-2.07m-357.47,0c-5.15-1.41-8.48-4.22-8.47-8.47a13,13,0,0,1,1.37-5.33l.27-.59.66-.13a19.93,19.93,0,0,0,8.16-3.6c3-2.54,4.18-6,4.23-15.88V125.55l-17.51-.61-.3-.78a15.79,15.79,0,0,1-1.34-6.13c0-6.34,4.92-10.59,11.06-10.59h7.64v-7.21c0-17.42,3.25-27.34,7.69-34,6.8-10.6,18.65-17.88,36.69-17.85,22.69,0,41.69,10.56,41.81,27.51,0,7.34-5.13,16.45-15.79,16.46a15.55,15.55,0,0,1-15.38-15.16,16.33,16.33,0,0,1,2.59-8.61c-2.38-2.09-6.92-3.35-11.3-3.31-7,0-10.9,2.46-13.35,6.5s-3.26,10-3.26,16.7v18.71h30.11l.35.81a16.17,16.17,0,0,1,1.31,6.28,11.64,11.64,0,0,1-10.49,11.94,65.7,65.7,0,0,1-6.73.23c-5,0-9.95-.36-13.63-.43v64.64c0,9.78,1.63,13.28,4.6,15.83,2.63,2.11,10.08,3.26,12.26,3.65l.65.11.28.62a11.75,11.75,0,0,1,1.24,4.93c0,4.47-3.64,7.29-9.14,8.78s-13.49,2.16-23.58,2.16c-9.9,0-17.41-.58-22.64-2.08m-209.71,0c-5.11-1.4-8.39-4.22-8.39-8.44a13.52,13.52,0,0,1,1.39-5.36l.28-.6.66-.13a19.81,19.81,0,0,0,8.13-3.6c3-2.54,4.21-6,4.23-15.88V141.18c-.24-8.35-2.2-11.27-9.12-11.47a30.19,30.19,0,0,0-5.53.6l-1.06.19-.39-1a14.35,14.35,0,0,1-1.12-5.41c.18-9.86,11-14.93,18.36-17.2a27.66,27.66,0,0,1,8.07-1.33c10,0,15.37,7,17.69,16,6.53-10.53,16.92-17.48,27.08-17.52,9.44,0,19.17,6.24,19.21,18.14,0,8.44-6,17.3-16,17.33a15.14,15.14,0,0,1-15.16-12c-5.67,1.85-13.73,8.91-13.81,33.33v29.89c0,9.81,1.46,13.32,4.4,15.83,2.76,2.17,8.62,3.26,10.76,3.65l.64.13.29.6a14.09,14.09,0,0,1,1.48,5.76c0,4-3,6.77-7.82,8.12s-12,2-21.71,2c-9.88,0-17.35-.58-22.54-2.07m-99.1,0c-5.11-1.4-8.38-4.22-8.38-8.44a13,13,0,0,1,1.38-5.36l.28-.6.65-.13a19.93,19.93,0,0,0,8.16-3.6c3-2.54,4.2-6,4.22-15.88V141.18c-.25-8.35-2.2-11.27-9.13-11.47a30.18,30.18,0,0,0-5.52.6l-1.06.19-.39-1a14.35,14.35,0,0,1-1.12-5.41c.18-9.86,11-14.93,18.36-17.2a27.53,27.53,0,0,1,8.05-1.33c10,0,15.38,7,17.71,16,6.52-10.49,16.91-17.44,27.07-17.49,9.46,0,19.19,6.25,19.23,18.15,0,8.44-6,17.3-16,17.33a15.16,15.16,0,0,1-15.17-12c-5.67,1.85-13.71,8.91-13.8,33.33v29.89c0,9.81,1.44,13.32,4.4,15.83,2.73,2.17,8.62,3.26,10.75,3.65l.65.13.28.6a14.11,14.11,0,0,1,1.5,5.76c0,4-3,6.77-7.84,8.12s-12,2-21.71,2c-9.88,0-17.35-.58-22.54-2.07m413.28-62c.06,32.57,14.21,46.57,28.11,46.61,15.88,0,27.37-14,27.47-41.45,0-14.31-3.16-25.76-8.34-33.52s-12.25-11.9-20.4-11.9c-16.49,0-26.75,14.92-26.84,40.26m-498.2,6.77c-13.07.14-21.88,6.28-21.94,18.43.08,11.48,7.83,19.2,20,19.28,7.89,0,16-4.35,21.08-10.67V179.79c0-2.3-1.5-4.8-4.73-6.82s-8.12-3.41-14.42-3.41m338.71-19.68c2.35,0,3-.58,3.45-1.34a10,10,0,0,0,.57-4.34,22.08,22.08,0,0,0-22.41-21.76h-.16c-17,0-24,13.65-25,27.44ZM23.67,207C9.27,192.27,0,170.72,0,143.87c0-25.69,9.06-47.36,23.23-62.6s33.43-24,53.74-24c36.43.06,62.16,25.55,62.29,47.58,0,11.78-7.47,20.9-17.57,20.92a18.9,18.9,0,0,1-13.07-4.92,18.28,18.28,0,0,1-5.54-13.69c0-6.89,3.52-11.07,6.16-14.07C104.45,84.78,95,77.93,80.12,77.9c-12.64,0-23.27,6.56-30.93,18.1S37,124.09,37,143.68s4.72,36,12.58,47.53,18.73,18,31.37,18c14.86,0,24.34-6.8,29.11-15.18-2.65-2.93-6.16-7.14-6.16-14a18.46,18.46,0,0,1,5.54-13.73,19,19,0,0,1,13.08-4.92c10.1,0,17.54,9.08,17.56,20.83-.12,22.15-25.85,47.54-62.27,47.61A75.41,75.41,0,0,1,23.67,207m0,0C9.27,192.25,0,170.7,0,143.85c0-25.69,9.06-47.36,23.23-62.6s33.43-24,53.74-24c36.43.06,62.16,25.55,62.29,47.58,0,11.78-7.47,20.9-17.57,20.92a18.9,18.9,0,0,1-13.07-4.92,18.28,18.28,0,0,1-5.54-13.69c0-6.89,3.52-11.07,6.16-14.07C104.45,84.76,95,77.91,80.12,77.88c-12.64,0-23.27,6.56-30.93,18.1S37,124.07,37,143.66s4.72,36,12.58,47.53,18.73,18,31.37,18c14.86,0,24.34-6.8,29.11-15.18-2.65-2.93-6.16-7.14-6.16-14a18.46,18.46,0,0,1,5.54-13.73,19,19,0,0,1,13.08-4.92c10.1,0,17.54,9.08,17.56,20.83-.12,22.15-25.85,47.54-62.27,47.61A75.41,75.41,0,0,1,23.67,207m0,0C9.27,192.23,0,170.68,0,143.83c0-25.69,9.06-47.36,23.23-62.6s33.43-24,53.74-24c36.43.06,62.16,25.55,62.29,47.58,0,11.78-7.47,20.9-17.57,20.92a18.9,18.9,0,0,1-13.07-4.92,18.28,18.28,0,0,1-5.54-13.69c0-6.89,3.52-11.07,6.16-14.07C104.45,84.74,95,77.89,80.12,77.86c-12.64,0-23.27,6.56-30.93,18.1S37,124.05,37,143.64s4.72,36,12.58,47.53,18.73,18,31.37,18c14.86,0,24.34-6.8,29.11-15.18-2.65-2.93-6.16-7.14-6.16-14a18.46,18.46,0,0,1,5.54-13.73,19,19,0,0,1,13.08-4.92c10.1,0,17.54,9.08,17.56,20.83-.12,22.15-25.85,47.54-62.27,47.61A75.41,75.41,0,0,1,23.67,207"></path><g class="cls-3"><path class="cls-1" d="M605.2,351.55a40.43,40.43,0,0,1-14.05-7,7.67,7.67,0,0,1-1.32-10.65,4.67,4.67,0,0,1,3.72-2,10.27,10.27,0,0,1,5.16,1.76,37.69,37.69,0,0,0,11.34,5.67,45.69,45.69,0,0,0,13.11,1.77q9.2,0,14.11-3.22a10.5,10.5,0,0,0,4.91-9.38c0-3.2-1.53-5.65-4.59-7.38s-8.17-3.38-15.31-5a90.77,90.77,0,0,1-18-5.55,25.31,25.31,0,0,1-10.46-8.06q-3.52-4.92-3.53-12.47a23.49,23.49,0,0,1,4.41-14A29.12,29.12,0,0,1,607,266.5a43.51,43.51,0,0,1,17.7-3.46q18,0,29.36,9.57a9.57,9.57,0,0,1,2.33,2.71,7.19,7.19,0,0,1,.69,3.34,7.11,7.11,0,0,1-1.57,4.6,4.67,4.67,0,0,1-3.72,1.95,6.74,6.74,0,0,1-2.33-.38,18.92,18.92,0,0,1-2.84-1.38,42.63,42.63,0,0,0-10-5.61A34,34,0,0,0,624.67,276q-8.56,0-13.54,3.47a11.09,11.09,0,0,0-5,9.64,8.85,8.85,0,0,0,4.41,7.94q4.41,2.76,15,5.16a100.59,100.59,0,0,1,18.21,5.61,27.06,27.06,0,0,1,10.71,7.87,19,19,0,0,1,3.72,12,22.86,22.86,0,0,1-4.35,13.8,28.38,28.38,0,0,1-12.22,9.33,46.09,46.09,0,0,1-18.08,3.33A63.76,63.76,0,0,1,605.2,351.55Z"></path><path class="cls-1" d="M724,337.75a6.86,6.86,0,0,1,1.32,4.41c0,2.61-1.55,4.79-4.66,6.56a42.67,42.67,0,0,1-9.7,3.84A40.27,40.27,0,0,1,700.65,354q-14.88,0-23.56-8.57T668.39,322a35.92,35.92,0,0,1,3.78-16.75,27.5,27.5,0,0,1,10.65-11.34,30.13,30.13,0,0,1,15.56-4,27.91,27.91,0,0,1,14.49,3.66,24.78,24.78,0,0,1,9.57,10.33,34.25,34.25,0,0,1,3.41,15.75q0,5.42-4.79,5.42H683.89q.75,8.69,4.91,12.79t12.1,4.09a22.7,22.7,0,0,0,7.12-1,68.21,68.21,0,0,0,7-2.77q3.78-2,5.55-2A4.24,4.24,0,0,1,724,337.75ZM688.49,305q-3.86,4-4.6,11.6h28.48q-.25-7.69-3.78-11.66t-9.83-4A13.54,13.54,0,0,0,688.49,305Zm10.27-21a4,4,0,0,1-3-1.19,3.89,3.89,0,0,1-1.2-2.84,4.64,4.64,0,0,1,1-2.77l12.22-16.26q2.89-3.78,6.68-3.78a6.45,6.45,0,0,1,4.72,2,6.3,6.3,0,0,1,2,4.6,7.37,7.37,0,0,1-3.41,6l-16.25,13.23A4.66,4.66,0,0,1,698.76,284Z"></path><path class="cls-1" d="M791,296.17q5.41,6.31,5.42,19v31a7.37,7.37,0,0,1-2.08,5.54,7.92,7.92,0,0,1-5.74,2,8.12,8.12,0,0,1-5.79-2,7.22,7.22,0,0,1-2.14-5.54V316.08q0-7.18-2.71-10.46t-8.51-3.27a14.41,14.41,0,0,0-10.9,4.28q-4.1,4.29-4.09,11.47v28.1a7.26,7.26,0,0,1-2.14,5.54,8.14,8.14,0,0,1-5.8,2,7.88,7.88,0,0,1-5.73-2,7.34,7.34,0,0,1-2.08-5.54V297.43a6.93,6.93,0,0,1,2.14-5.29,8.14,8.14,0,0,1,5.8-2,7.5,7.5,0,0,1,5.35,1.95,6.66,6.66,0,0,1,2.08,5.1v3.4a21.31,21.31,0,0,1,8.44-7.93,25.4,25.4,0,0,1,12-2.78Q785.57,289.87,791,296.17Z"></path><path class="cls-1" d="M864.63,337.75a6.8,6.8,0,0,1,1.33,4.41c0,2.61-1.56,4.79-4.66,6.56a42.75,42.75,0,0,1-9.71,3.84A40.21,40.21,0,0,1,841.26,354q-14.87,0-23.56-8.57T809,322a35.92,35.92,0,0,1,3.78-16.75,27.5,27.5,0,0,1,10.65-11.34,30.16,30.16,0,0,1,15.56-4,27.86,27.86,0,0,1,14.49,3.66,24.8,24.8,0,0,1,9.58,10.33,34.25,34.25,0,0,1,3.4,15.75q0,5.42-4.79,5.42H824.5c.51,5.79,2.14,10.06,4.92,12.79s6.8,4.09,12.09,4.09a22.7,22.7,0,0,0,7.12-1,69.21,69.21,0,0,0,7-2.77q3.76-2,5.54-2A4.22,4.22,0,0,1,864.63,337.75ZM829.1,305q-3.84,4-4.6,11.6H853q-.26-7.69-3.78-11.66t-9.83-4A13.56,13.56,0,0,0,829.1,305Zm10.27-21a4,4,0,0,1-3-1.19,3.89,3.89,0,0,1-1.2-2.84,4.71,4.71,0,0,1,1-2.77l12.22-16.26q2.89-3.78,6.68-3.78a6.47,6.47,0,0,1,4.73,2,6.29,6.29,0,0,1,1.95,4.6,7.35,7.35,0,0,1-3.4,6l-16.26,13.23A4.64,4.64,0,0,1,839.37,284Z"></path><path class="cls-1" d="M937.15,292.14a7.12,7.12,0,0,1,2.14,5.42v49.77q0,14.49-8.07,21.92t-23.81,7.44q-13.74,0-22.93-5.17c-3.11-1.85-4.66-4.07-4.66-6.68a6.84,6.84,0,0,1,1.32-4.41,4.22,4.22,0,0,1,3.46-1.63,9,9,0,0,1,2.78.56c1.09.38,2.22.82,3.4,1.33a71.58,71.58,0,0,0,8.12,2.89,30.37,30.37,0,0,0,8.26,1q16.5,0,16.5-16.13V340.4a19.2,19.2,0,0,1-8.06,8,25.23,25.23,0,0,1-12.1,2.84,26,26,0,0,1-24.06-14.62,34.81,34.81,0,0,1-3.53-16,35.76,35.76,0,0,1,3.46-16.07,25.76,25.76,0,0,1,9.77-10.83,27.05,27.05,0,0,1,14.36-3.85,25.23,25.23,0,0,1,12.1,2.84,19.25,19.25,0,0,1,8.06,8v-3.28a7,7,0,0,1,2.14-5.29,9,9,0,0,1,11.35,0Zm-17.71,42q4.23-4.92,4.22-13.48T919.44,307q-4.22-4.92-11.78-4.91T895.94,307q-4.28,4.92-4.28,13.61t4.28,13.48q4.29,4.92,11.72,4.91T919.44,334.1Z"></path><path class="cls-1" d="M1001.34,296.24q6.24,6.36,6.24,19.34v30.74a7.09,7.09,0,0,1-2,5.36,7.63,7.63,0,0,1-5.54,1.95,7.36,7.36,0,0,1-5.36-2,7,7,0,0,1-2.07-5.29v-2.77a16.45,16.45,0,0,1-6.75,7.69A20.26,20.26,0,0,1,975.2,354,24.74,24.74,0,0,1,964,351.49a19.91,19.91,0,0,1-7.93-6.93,17.46,17.46,0,0,1-2.9-9.83c0-4.54,1.15-8.1,3.46-10.71s6.07-4.49,11.28-5.67,12.39-1.76,21.54-1.76h3.16v-2.9c0-4.12-.89-7.12-2.65-9s-4.62-2.84-8.57-2.84a26.93,26.93,0,0,0-7.43,1.08q-3.78,1.06-9,3.08a12.62,12.62,0,0,1-4.79,1.64,4.73,4.73,0,0,1-3.71-1.64,6.2,6.2,0,0,1-1.45-4.28,6.41,6.41,0,0,1,1.07-3.72,10.19,10.19,0,0,1,3.59-3,41.43,41.43,0,0,1,10.52-3.78,54.47,54.47,0,0,1,12-1.39Q995.11,289.87,1001.34,296.24Zm-12.72,42.21a15.31,15.31,0,0,0,4-10.9V324.9h-2.27a86.12,86.12,0,0,0-13.11.76c-3.11.5-5.33,1.38-6.68,2.64a6.76,6.76,0,0,0-2,5.17,8.56,8.56,0,0,0,2.83,6.62,10,10,0,0,0,7,2.58A13.48,13.48,0,0,0,988.62,338.45Z"></path><path class="cls-1" d="M1025.78,351.8a7.08,7.08,0,0,1-2.2-5.6V271a6.9,6.9,0,0,1,2.2-5.54,8.32,8.32,0,0,1,5.61-1.89,8.55,8.55,0,0,1,5.67,1.89,6.81,6.81,0,0,1,2.27,5.54V346.2a7,7,0,0,1-2.27,5.6,8.39,8.39,0,0,1-5.67,2A8.16,8.16,0,0,1,1025.78,351.8Z"></path></g></g></g></svg>